<mxfile host="65bd71144e">
    <diagram id="C5RBs43oDa-KdzZeNtuy" name="Page-1">
        <mxGraphModel dx="789" dy="1214" grid="0" gridSize="10" guides="1" tooltips="1" connect="1" arrows="1" fold="1" page="1" pageScale="1" pageWidth="827" pageHeight="1169" math="0" shadow="0">
            <root>
                <mxCell id="WIyWlLk6GJQsqaUBKTNV-0"/>
                <mxCell id="WIyWlLk6GJQsqaUBKTNV-1" parent="WIyWlLk6GJQsqaUBKTNV-0"/>
                <mxCell id="AQDEDZSOGcC9H5lW4dlP-2" value="" style="edgeStyle=orthogonalEdgeStyle;rounded=0;orthogonalLoop=1;jettySize=auto;html=1;endArrow=block;endFill=1;" parent="WIyWlLk6GJQsqaUBKTNV-1" source="AQDEDZSOGcC9H5lW4dlP-0" edge="1">
                    <mxGeometry relative="1" as="geometry">
                        <mxPoint x="241" y="179" as="targetPoint"/>
                    </mxGeometry>
                </mxCell>
                <mxCell id="AQDEDZSOGcC9H5lW4dlP-0" value="VA.gov Frontend" style="rounded=1;whiteSpace=wrap;html=1;" parent="WIyWlLk6GJQsqaUBKTNV-1" vertex="1">
                    <mxGeometry x="71" y="149" width="120" height="60" as="geometry"/>
                </mxCell>
                <mxCell id="AQDEDZSOGcC9H5lW4dlP-3" value="Lighthouse Benefits Claims" style="rounded=1;whiteSpace=wrap;html=1;" parent="WIyWlLk6GJQsqaUBKTNV-1" vertex="1">
                    <mxGeometry x="242" y="149" width="180" height="60" as="geometry"/>
                </mxCell>
                <mxCell id="3ceaPk3gWjXuURBJDKda-1" value="" style="edgeStyle=orthogonalEdgeStyle;rounded=0;orthogonalLoop=1;jettySize=auto;html=1;endArrow=block;endFill=1;" parent="WIyWlLk6GJQsqaUBKTNV-1" source="3ceaPk3gWjXuURBJDKda-2" target="3ceaPk3gWjXuURBJDKda-5" edge="1">
                    <mxGeometry relative="1" as="geometry"/>
                </mxCell>
                <mxCell id="3ceaPk3gWjXuURBJDKda-2" value="VA.gov Frontend" style="rounded=1;whiteSpace=wrap;html=1;" parent="WIyWlLk6GJQsqaUBKTNV-1" vertex="1">
                    <mxGeometry x="75" y="473" width="120" height="60" as="geometry"/>
                </mxCell>
                <mxCell id="3ceaPk3gWjXuURBJDKda-3" style="edgeStyle=orthogonalEdgeStyle;rounded=0;orthogonalLoop=1;jettySize=auto;html=1;entryX=0;entryY=0.5;entryDx=0;entryDy=0;endArrow=block;endFill=0;" parent="WIyWlLk6GJQsqaUBKTNV-1" source="3ceaPk3gWjXuURBJDKda-5" target="3ceaPk3gWjXuURBJDKda-6" edge="1">
                    <mxGeometry relative="1" as="geometry">
                        <Array as="points">
                            <mxPoint x="522" y="503"/>
                            <mxPoint x="522" y="463"/>
                        </Array>
                    </mxGeometry>
                </mxCell>
                <mxCell id="3ceaPk3gWjXuURBJDKda-4" style="edgeStyle=orthogonalEdgeStyle;rounded=0;orthogonalLoop=1;jettySize=auto;html=1;entryX=0;entryY=0.5;entryDx=0;entryDy=0;endArrow=block;endFill=0;" parent="WIyWlLk6GJQsqaUBKTNV-1" source="3ceaPk3gWjXuURBJDKda-5" target="3ceaPk3gWjXuURBJDKda-7" edge="1">
                    <mxGeometry relative="1" as="geometry">
                        <Array as="points">
                            <mxPoint x="522" y="503"/>
                            <mxPoint x="522" y="543"/>
                        </Array>
                    </mxGeometry>
                </mxCell>
                <mxCell id="3ceaPk3gWjXuURBJDKda-5" value="&lt;div&gt;cst_use_lighthouse_5103&lt;/div&gt;&lt;div&gt;&lt;font style=&quot;font-size: 10px;&quot;&gt;(Feature toggle)&lt;/font&gt;&lt;/div&gt;" style="rounded=1;whiteSpace=wrap;html=1;" parent="WIyWlLk6GJQsqaUBKTNV-1" vertex="1">
                    <mxGeometry x="245" y="473" width="220" height="60" as="geometry"/>
                </mxCell>
                <mxCell id="3ceaPk3gWjXuURBJDKda-6" value="Lighthouse Benefits Claims" style="rounded=1;whiteSpace=wrap;html=1;" parent="WIyWlLk6GJQsqaUBKTNV-1" vertex="1">
                    <mxGeometry x="605" y="433" width="164" height="60" as="geometry"/>
                </mxCell>
                <mxCell id="3ceaPk3gWjXuURBJDKda-7" value="EVSS" style="rounded=1;whiteSpace=wrap;html=1;" parent="WIyWlLk6GJQsqaUBKTNV-1" vertex="1">
                    <mxGeometry x="605" y="513" width="164" height="60" as="geometry"/>
                </mxCell>
                <mxCell id="3ceaPk3gWjXuURBJDKda-8" value="Enabled" style="text;html=1;align=center;verticalAlign=middle;whiteSpace=wrap;rounded=0;" parent="WIyWlLk6GJQsqaUBKTNV-1" vertex="1">
                    <mxGeometry x="525" y="428" width="60" height="30" as="geometry"/>
                </mxCell>
                <mxCell id="3ceaPk3gWjXuURBJDKda-9" value="Disabled" style="text;html=1;align=center;verticalAlign=middle;whiteSpace=wrap;rounded=0;" parent="WIyWlLk6GJQsqaUBKTNV-1" vertex="1">
                    <mxGeometry x="525" y="547" width="60" height="30" as="geometry"/>
                </mxCell>
                <mxCell id="3ceaPk3gWjXuURBJDKda-10" value="" style="edgeStyle=orthogonalEdgeStyle;rounded=0;orthogonalLoop=1;jettySize=auto;html=1;endArrow=block;endFill=1;" parent="WIyWlLk6GJQsqaUBKTNV-1" source="3ceaPk3gWjXuURBJDKda-11" edge="1">
                    <mxGeometry relative="1" as="geometry">
                        <mxPoint x="245" y="647" as="targetPoint"/>
                    </mxGeometry>
                </mxCell>
                <mxCell id="3ceaPk3gWjXuURBJDKda-11" value="VA.gov Frontend" style="rounded=1;whiteSpace=wrap;html=1;" parent="WIyWlLk6GJQsqaUBKTNV-1" vertex="1">
                    <mxGeometry x="75" y="617" width="120" height="60" as="geometry"/>
                </mxCell>
                <mxCell id="3ceaPk3gWjXuURBJDKda-16" value="Caseflow" style="rounded=1;whiteSpace=wrap;html=1;" parent="WIyWlLk6GJQsqaUBKTNV-1" vertex="1">
                    <mxGeometry x="244" y="619" width="87" height="60" as="geometry"/>
                </mxCell>
                <mxCell id="3ceaPk3gWjXuURBJDKda-28" value="" style="edgeStyle=orthogonalEdgeStyle;rounded=0;orthogonalLoop=1;jettySize=auto;html=1;endArrow=block;endFill=1;" parent="WIyWlLk6GJQsqaUBKTNV-1" source="3ceaPk3gWjXuURBJDKda-29" target="3ceaPk3gWjXuURBJDKda-32" edge="1">
                    <mxGeometry relative="1" as="geometry"/>
                </mxCell>
                <mxCell id="3ceaPk3gWjXuURBJDKda-29" value="VA.gov Frontend" style="rounded=1;whiteSpace=wrap;html=1;" parent="WIyWlLk6GJQsqaUBKTNV-1" vertex="1">
                    <mxGeometry x="75" y="289" width="120" height="60" as="geometry"/>
                </mxCell>
                <mxCell id="3ceaPk3gWjXuURBJDKda-30" style="edgeStyle=orthogonalEdgeStyle;rounded=0;orthogonalLoop=1;jettySize=auto;html=1;entryX=0;entryY=0.5;entryDx=0;entryDy=0;endArrow=block;endFill=0;" parent="WIyWlLk6GJQsqaUBKTNV-1" source="3ceaPk3gWjXuURBJDKda-32" target="3ceaPk3gWjXuURBJDKda-33" edge="1">
                    <mxGeometry relative="1" as="geometry">
                        <Array as="points">
                            <mxPoint x="522" y="319"/>
                            <mxPoint x="522" y="279"/>
                        </Array>
                    </mxGeometry>
                </mxCell>
                <mxCell id="3ceaPk3gWjXuURBJDKda-31" style="edgeStyle=orthogonalEdgeStyle;rounded=0;orthogonalLoop=1;jettySize=auto;html=1;entryX=0;entryY=0.5;entryDx=0;entryDy=0;endArrow=block;endFill=0;" parent="WIyWlLk6GJQsqaUBKTNV-1" source="3ceaPk3gWjXuURBJDKda-32" target="3ceaPk3gWjXuURBJDKda-34" edge="1">
                    <mxGeometry relative="1" as="geometry">
                        <Array as="points">
                            <mxPoint x="522" y="319"/>
                            <mxPoint x="522" y="359"/>
                        </Array>
                    </mxGeometry>
                </mxCell>
                <mxCell id="3ceaPk3gWjXuURBJDKda-32" value="&lt;div&gt;benefits_documents_use_lighthouse&lt;/div&gt;&lt;div&gt;&lt;font style=&quot;font-size: 10px;&quot;&gt;(Feature toggle)&lt;/font&gt;&lt;/div&gt;" style="rounded=1;whiteSpace=wrap;html=1;" parent="WIyWlLk6GJQsqaUBKTNV-1" vertex="1">
                    <mxGeometry x="245" y="289" width="220" height="60" as="geometry"/>
                </mxCell>
                <mxCell id="3ceaPk3gWjXuURBJDKda-33" value="Lighthouse Benefits Documents" style="rounded=1;whiteSpace=wrap;html=1;" parent="WIyWlLk6GJQsqaUBKTNV-1" vertex="1">
                    <mxGeometry x="605" y="249" width="152" height="60" as="geometry"/>
                </mxCell>
                <mxCell id="3ceaPk3gWjXuURBJDKda-34" value="EVSS" style="rounded=1;whiteSpace=wrap;html=1;" parent="WIyWlLk6GJQsqaUBKTNV-1" vertex="1">
                    <mxGeometry x="605" y="329" width="152" height="60" as="geometry"/>
                </mxCell>
                <mxCell id="3ceaPk3gWjXuURBJDKda-35" value="Enabled" style="text;html=1;align=center;verticalAlign=middle;whiteSpace=wrap;rounded=0;" parent="WIyWlLk6GJQsqaUBKTNV-1" vertex="1">
                    <mxGeometry x="525" y="241" width="60" height="30" as="geometry"/>
                </mxCell>
                <mxCell id="3ceaPk3gWjXuURBJDKda-36" value="Disabled" style="text;html=1;align=center;verticalAlign=middle;whiteSpace=wrap;rounded=0;" parent="WIyWlLk6GJQsqaUBKTNV-1" vertex="1">
                    <mxGeometry x="525" y="363" width="60" height="30" as="geometry"/>
                </mxCell>
                <mxCell id="3ceaPk3gWjXuURBJDKda-37" value="Benefits Claims" style="text;html=1;align=left;verticalAlign=middle;whiteSpace=wrap;rounded=0;fontSize=14;fontStyle=1" parent="WIyWlLk6GJQsqaUBKTNV-1" vertex="1">
                    <mxGeometry x="71" y="104" width="115" height="30" as="geometry"/>
                </mxCell>
                <mxCell id="3ceaPk3gWjXuURBJDKda-38" value="5103 Submissions" style="text;html=1;align=left;verticalAlign=middle;whiteSpace=wrap;rounded=0;fontSize=14;fontStyle=1" parent="WIyWlLk6GJQsqaUBKTNV-1" vertex="1">
                    <mxGeometry x="75" y="426" width="134" height="30" as="geometry"/>
                </mxCell>
                <mxCell id="3ceaPk3gWjXuURBJDKda-39" value="Appeals" style="text;html=1;align=left;verticalAlign=middle;whiteSpace=wrap;rounded=0;fontSize=14;fontStyle=1" parent="WIyWlLk6GJQsqaUBKTNV-1" vertex="1">
                    <mxGeometry x="79" y="577" width="63" height="30" as="geometry"/>
                </mxCell>
                <mxCell id="3ceaPk3gWjXuURBJDKda-40" value="STEM Claims" style="text;html=1;align=left;verticalAlign=middle;whiteSpace=wrap;rounded=0;fontSize=14;fontStyle=1" parent="WIyWlLk6GJQsqaUBKTNV-1" vertex="1">
                    <mxGeometry x="75" y="705" width="99" height="30" as="geometry"/>
                </mxCell>
                <mxCell id="3ceaPk3gWjXuURBJDKda-41" value="Document Uploads" style="text;html=1;align=left;verticalAlign=middle;whiteSpace=wrap;rounded=0;fontSize=14;fontStyle=1" parent="WIyWlLk6GJQsqaUBKTNV-1" vertex="1">
                    <mxGeometry x="75" y="243" width="139" height="30" as="geometry"/>
                </mxCell>
                <mxCell id="3ceaPk3gWjXuURBJDKda-42" value="" style="edgeStyle=orthogonalEdgeStyle;rounded=0;orthogonalLoop=1;jettySize=auto;html=1;endArrow=block;endFill=1;" parent="WIyWlLk6GJQsqaUBKTNV-1" source="3ceaPk3gWjXuURBJDKda-43" edge="1">
                    <mxGeometry relative="1" as="geometry">
                        <mxPoint x="245" y="773" as="targetPoint"/>
                    </mxGeometry>
                </mxCell>
                <mxCell id="3ceaPk3gWjXuURBJDKda-43" value="VA.gov Frontend" style="rounded=1;whiteSpace=wrap;html=1;" parent="WIyWlLk6GJQsqaUBKTNV-1" vertex="1">
                    <mxGeometry x="75" y="743" width="120" height="60" as="geometry"/>
                </mxCell>
                <mxCell id="3ceaPk3gWjXuURBJDKda-44" value="Vets API DB" style="rounded=1;whiteSpace=wrap;html=1;" parent="WIyWlLk6GJQsqaUBKTNV-1" vertex="1">
                    <mxGeometry x="244" y="745" width="143" height="60" as="geometry"/>
                </mxCell>
            </root>
        </mxGraphModel>
    </diagram>
</mxfile>